<svg width="64" height="64" viewBox="0 0 64 64" fill="none" xmlns="http://www.w3.org/2000/svg">
  <rect width="64" height="64" rx="18" fill="#080610"/>
  <circle cx="32" cy="32" r="20" fill="url(#paint0_radial)" fill-opacity="0.3"/>
  <path d="M37.8 16.8C31.9 18.6 27.6 24.1 27.6 30.6C27.6 37.2 31.9 42.7 37.8 44.4C35.9 45.1 33.8 45.4 31.6 45.4C22.8 45.4 15.6 38.4 15.6 29.7C15.6 20.9 22.8 13.9 31.6 13.9C33.8 13.9 35.9 14.2 37.8 14.9V16.8Z" fill="#F4ECDA"/>
  <path d="M46.8 18.5L48.4 22.5L52.4 24.1L48.4 25.7L46.8 29.7L45.2 25.7L41.2 24.1L45.2 22.5L46.8 18.5Z" fill="#E5C98F"/>
  <defs>
    <radialGradient id="paint0_radial" cx="0" cy="0" r="1" gradientUnits="userSpaceOnUse" gradientTransform="translate(32 32) rotate(90) scale(20)">
      <stop stop-color="#97D4FF"/>
      <stop offset="1" stop-color="#97D4FF" stop-opacity="0"/>
    </radialGradient>
  </defs>
</svg>
